<?xml version="1.0" encoding="iso-8859-1"?>
<!-- Generator: Adobe Illustrator 19.0.0, SVG Export Plug-In . SVG Version: 6.00 Build 0)  -->
<svg version="1.1" id="Layer_1" xmlns="http://www.w3.org/2000/svg" xmlns:xlink="http://www.w3.org/1999/xlink" x="0px" y="0px"
	 viewBox="0 0 511.882 511.882" style="enable-background:new 0 0 511.882 511.882;" xml:space="preserve">
<path style="fill:#F6BB42;" d="M471.813,40.085c-24.994-24.994-65.501-24.994-90.495,0l0,0l0,0L21.338,400.064v90.495h90.479
	l359.996-359.996C496.792,105.569,496.792,65.063,471.813,40.085z"/>
<path style="fill:#EC87C0;" d="M456.722,145.638l15.091-15.075c24.979-24.994,24.979-65.5,0-90.479
	c-24.994-24.994-65.501-24.994-90.495,0l0,0l-15.074,15.074L456.722,145.638z"/>
<path style="fill:#FFCE54;" d="M404.016,92.932L96.805,400.127v0.016c-4.171,4.155-4.171,10.904,0,15.075
	c4.171,4.155,10.919,4.155,15.075,0l307.211-307.212L404.016,92.932z"/>
<polygon style="fill:#FFE5AB;" points="21.338,400.064 21.338,490.559 111.817,490.559 "/>
<polygon style="fill:#E6E9ED;" points="396.47,206.031 305.976,115.551 366.306,55.221 456.8,145.716 "/>
<g>
	<path style="fill:#CCD1D9;" d="M358.761,92.932l-15.075-15.091c-0.031-0.016-0.047-0.031-0.078-0.062l-15.075,15.075
		c0.031,0.031,0.047,0.047,0.078,0.078l15.075,15.075c4.155,4.171,10.919,4.171,15.075,0
		C362.931,103.851,362.931,97.087,358.761,92.932z"/>
	<path style="fill:#CCD1D9;" d="M403.876,168.196l15.075,15.09c0.031,0.016,0.047,0.031,0.078,0.062l15.074-15.074
		c-0.016-0.031-0.047-0.047-0.062-0.078l-15.09-15.075c-4.156-4.171-10.904-4.171-15.075,0S399.705,164.041,403.876,168.196z"/>
</g>
<polygon style="fill:#656D78;" points="21.338,460.394 21.338,490.559 51.488,490.559 "/>
<polygon style="fill:#CCD1D9;" points="0,105.569 90.479,15.09 496.807,421.403 406.312,511.882 "/>
<polygon style="fill:#E6E9ED;" points="15.074,90.495 105.569,0 511.882,406.313 421.403,496.807 "/>
<g>
	<path style="fill:#656D78;" d="M143.045,67.609L158.12,52.55l-15.09-15.09l-15.074,15.09l0,0c-4.171,4.171-4.171,10.919,0,15.074
		c4.155,4.171,10.903,4.171,15.074,0C143.029,67.625,143.045,67.625,143.045,67.609z"/>
	<path style="fill:#656D78;" d="M188.269,112.88l15.09-15.091l-15.09-15.074l-15.075,15.074l0,0c-4.171,4.171-4.171,10.92,0,15.075
		C177.365,117.036,184.113,117.036,188.269,112.88L188.269,112.88z"/>
	<path style="fill:#656D78;" d="M233.524,158.104l15.075-15.075l-15.075-15.075l-15.09,15.075l0,0
		c-4.155,4.171-4.155,10.919,0,15.09c4.171,4.155,10.919,4.155,15.09,0C233.524,158.12,233.524,158.12,233.524,158.104z"/>
	<path style="fill:#656D78;" d="M278.763,203.359L278.763,203.359l15.075-15.075l-15.075-15.09l-15.074,15.075c0,0,0,0,0,0.016
		c-4.171,4.155-4.171,10.904,0,15.075C267.844,207.53,274.593,207.53,278.763,203.359L278.763,203.359z"/>
	<path style="fill:#656D78;" d="M324.019,248.599l15.074-15.075l-15.09-15.09l-15.075,15.09l0,0c-4.171,4.171-4.171,10.92,0,15.075
		c4.155,4.171,10.903,4.171,15.075,0C324.003,248.599,324.003,248.599,324.019,248.599z"/>
	<path style="fill:#656D78;" d="M369.258,293.838l15.075-15.074l-15.091-15.075l-15.075,15.075l0,0
		c-4.17,4.171-4.17,10.919,0,15.074c4.172,4.171,10.92,4.171,15.075,0H369.258z"/>
	<path style="fill:#656D78;" d="M414.498,339.078l15.075-15.074l-15.075-15.074l-15.09,15.074l0,0l0,0
		c-4.155,4.171-4.155,10.92,0,15.09c4.171,4.156,10.92,4.156,15.09,0V339.078z"/>
	<path style="fill:#656D78;" d="M459.738,384.334L459.738,384.334L459.738,384.334l15.074-15.091l-15.074-15.074l-15.074,15.074
		c0,0,0,0-0.016,0.016c-4.156,4.155-4.156,10.904,0,15.075C448.818,388.504,455.567,388.504,459.738,384.334z"/>
</g>
<g>
</g>
<g>
</g>
<g>
</g>
<g>
</g>
<g>
</g>
<g>
</g>
<g>
</g>
<g>
</g>
<g>
</g>
<g>
</g>
<g>
</g>
<g>
</g>
<g>
</g>
<g>
</g>
<g>
</g>
</svg>
