<?xml version="1.0" encoding="utf-8"?>
<svg version="1.1" id="Layer_1" x="0px" y="0px" viewBox="0 0 511.883 511.883" style="enable-background:new 0 0 511.883 511.883;" xmlns="http://www.w3.org/2000/svg">
  <polygon style="fill: rgb(204, 209, 217);" points="341.356 511.154 170.723 511.154 191.952 391.084 320 391.049"/>
  <g style="" transform="matrix(1, 0, 0.000462, 1.126698, -0.104887, -29.531715)">
    <path style="fill:#E6E9ED;" d="M511.883,383.909c0,5.905-4.781,10.653-10.67,10.653H10.654C4.78,394.561,0,389.814,0,383.908 V42.651c0-5.889,4.78-10.653,10.654-10.653h490.559c5.889,0,10.67,4.764,10.67,10.653V383.909z"/>
    <path style="fill:#E6E9ED;" d="M341.251,479.885H170.618c-5.874,0-10.654-4.779-10.654-10.653c0-5.905,4.78-10.686,10.654-10.686 h170.633c5.889,0,10.669,4.78,10.669,10.686C351.92,475.107,347.139,479.885,341.251,479.885z"/>
  </g>
  <path style="fill: rgb(101, 109, 120);" d="M 501.122 6.521 L 10.563 6.521 C 4.689 6.521 -0.089 11.888 -0.086 18.524 L 0.039 342.929 L 511.922 342.929 L 511.797 18.524 C 511.794 11.888 507.011 6.521 501.122 6.521 Z"/>
  <path style="fill: rgb(67, 74, 84);" d="M 266.649 378.975 C 266.651 385.628 261.888 391.013 255.999 391.013 C 250.11 391.013 245.328 385.629 245.326 378.975 C 245.322 372.356 250.101 366.973 255.99 366.973 C 261.879 366.973 266.645 372.356 266.649 378.975 Z"/>
  <path style="fill: rgb(252, 110, 81);" d="M 373.171 54.57 L 53.245 54.57 C 47.355 54.57 42.578 59.956 42.581 66.591 C 42.583 73.227 47.364 78.613 53.253 78.613 L 373.179 78.613 C 379.068 78.613 383.848 73.227 383.846 66.591 C 383.843 59.956 379.059 54.57 373.171 54.57 Z"/>
  <path style="fill: rgb(172, 146, 235);" d="M 53.272 126.664 L 223.904 126.664 C 229.794 126.664 234.557 121.295 234.554 114.66 C 234.551 108.006 229.785 102.639 223.895 102.639 L 53.263 102.639 C 47.373 102.639 42.596 108.006 42.599 114.66 C 42.601 121.295 47.382 126.664 53.272 126.664 Z"/>
  <path style="fill: rgb(72, 207, 173);" d="M 53.291 174.729 L 287.909 174.729 C 293.799 174.729 298.561 169.342 298.559 162.708 C 298.556 156.073 293.789 150.704 287.9 150.704 L 53.282 150.704 C 47.392 150.704 42.615 156.073 42.618 162.708 C 42.619 169.342 47.401 174.729 53.291 174.729 Z"/>
  <path style="fill: rgb(93, 156, 236);" d="M 53.31 222.78 L 202.603 222.798 C 208.508 222.798 213.27 217.412 213.268 210.776 C 213.264 204.142 208.499 198.756 202.594 198.756 L 53.301 198.756 C 47.411 198.756 42.633 204.142 42.637 210.776 C 42.638 217.411 47.42 222.78 53.31 222.78 Z"/>
  <path style="fill: rgb(255, 206, 84);" d="M 330.583 246.82 L 53.319 246.82 C 47.429 246.82 42.652 252.205 42.655 258.824 C 42.658 265.477 47.439 270.845 53.328 270.845 L 330.592 270.845 C 336.497 270.845 341.261 265.477 341.258 258.842 C 341.255 252.207 336.488 246.82 330.583 246.82 Z"/>
  <path style="fill: rgb(237, 85, 100);" d="M 138.646 294.879 L 53.338 294.879 C 47.448 294.879 42.671 300.266 42.674 306.883 C 42.675 313.536 47.458 318.923 53.347 318.923 L 138.656 318.923 C 144.561 318.923 149.322 313.537 149.321 306.883 C 149.318 300.266 144.551 294.879 138.646 294.879 Z"/>
  <g style="" transform="matrix(1, 0, 0.000462, 1.126698, -0.104887, -29.531715)"/>
  <g style="" transform="matrix(1, 0, 0.000462, 1.126698, -0.104887, -29.531715)"/>
  <g style="" transform="matrix(1, 0, 0.000462, 1.126698, -0.104887, -29.531715)"/>
  <g style="" transform="matrix(1, 0, 0.000462, 1.126698, -0.104887, -29.531715)"/>
  <g style="" transform="matrix(1, 0, 0.000462, 1.126698, -0.104887, -29.531715)"/>
  <g style="" transform="matrix(1, 0, 0.000462, 1.126698, -0.104887, -29.531715)"/>
  <g style="" transform="matrix(1, 0, 0.000462, 1.126698, -0.104887, -29.531715)"/>
  <g style="" transform="matrix(1, 0, 0.000462, 1.126698, -0.104887, -29.531715)"/>
  <g style="" transform="matrix(1, 0, 0.000462, 1.126698, -0.104887, -29.531715)"/>
  <g style="" transform="matrix(1, 0, 0.000462, 1.126698, -0.104887, -29.531715)"/>
  <g style="" transform="matrix(1, 0, 0.000462, 1.126698, -0.104887, -29.531715)"/>
  <g style="" transform="matrix(1, 0, 0.000462, 1.126698, -0.104887, -29.531715)"/>
  <g style="" transform="matrix(1, 0, 0.000462, 1.126698, -0.104887, -29.531715)"/>
  <g style="" transform="matrix(1, 0, 0.000462, 1.126698, -0.104887, -29.531715)"/>
  <g style="" transform="matrix(1, 0, 0.000462, 1.126698, -0.104887, -29.531715)"/>
</svg>