<?xml version="1.0" encoding="iso-8859-1"?>
<!-- Generator: Adobe Illustrator 19.0.0, SVG Export Plug-In . SVG Version: 6.00 Build 0)  -->
<svg version="1.1" id="Layer_1" xmlns="http://www.w3.org/2000/svg" xmlns:xlink="http://www.w3.org/1999/xlink" x="0px" y="0px"
	 viewBox="0 0 511.882 511.882" style="enable-background:new 0 0 511.882 511.882;" xml:space="preserve">
<path style="fill:#656D78;" d="M415.904,469.22c0,23.557-19.105,42.662-42.662,42.662h-234.61
	c-23.558,0-42.654-19.105-42.654-42.662V42.646C95.978,19.089,115.075,0,138.632,0h234.609c23.557,0,42.662,19.09,42.662,42.646
	V469.22H415.904z"/>
<path style="fill:#48CFAD;" d="M373.242,0h-234.61c-23.558,0-42.654,19.09-42.654,42.646v383.912h319.926V42.646
	C415.904,19.089,396.798,0,373.242,0z"/>
<path style="fill:#CCD1D9;" d="M276.78,469.22c0,11.778-9.537,21.323-21.323,21.323c-11.778,0-21.323-9.545-21.323-21.323
	s9.545-21.323,21.323-21.323C267.243,447.897,276.78,457.442,276.78,469.22z"/>
<rect x="138.631" y="42.646" style="fill:#F5F7FA;" width="234.61" height="213.29"/>
<g>
	<path style="fill:#434A54;" d="M362.572,298.587H149.294c-5.89,0-10.661-4.765-10.661-10.654c0-5.889,4.771-10.669,10.661-10.669
		h213.278c5.905,0,10.67,4.78,10.67,10.669C373.242,293.823,368.477,298.587,362.572,298.587z"/>
	<path style="fill:#434A54;" d="M362.572,341.25H149.294c-5.89,0-10.661-4.78-10.661-10.67c0-5.889,4.771-10.653,10.661-10.653
		h213.278c5.905,0,10.67,4.765,10.67,10.653C373.242,336.469,368.477,341.25,362.572,341.25z"/>
	<path style="fill:#434A54;" d="M244.795,383.912h-95.502c-5.89,0-10.661-4.78-10.661-10.67c0-5.889,4.771-10.669,10.661-10.669
		h95.502c5.889,0,10.661,4.78,10.661,10.669C255.457,379.131,250.684,383.912,244.795,383.912z"/>
</g>
<g>
</g>
<g>
</g>
<g>
</g>
<g>
</g>
<g>
</g>
<g>
</g>
<g>
</g>
<g>
</g>
<g>
</g>
<g>
</g>
<g>
</g>
<g>
</g>
<g>
</g>
<g>
</g>
<g>
</g>
</svg>
